{
    "asset": {
        "version": "2.0",
        "generator": "THREE.GLTFExporter"
    },
    "scenes": [
        {
            "name": "AuxScene",
            "nodes": [
                0
            ]
        }
    ],
    "scene": 0,
    "nodes": [
        {
            "mesh": 0
        }
    ],
    "bufferViews": [
        {
            "buffer": 0,
            "byteOffset": 0,
            "byteLength": 865824,
            "target": 34962,
            "byteStride": 12
        },
        {
            "buffer": 0,
            "byteOffset": 865824,
            "byteLength": 288608,
            "target": 34962,
            "byteStride": 4
        }
    ],
    "buffers": [
        {
            "byteLength": 1154432,
            "uri": "data:application/octet-stream;base64,"
        }
    ],
    "accessors": [
        {
            "bufferView": 0,
            "componentType": 5126,
            "count": 72152,
            "max": [
                0.5633878111839294,
                0.5414368510246277,
                0.12127648293972015
            ],
            "min": [
                -0.2247675359249115,
                -0.37161916494369507,
                -0.11956443637609482
            ],
            "type": "VEC3"
        },
        {
            "bufferView": 1,
            "componentType": 5126,
            "count": 72152,
            "max": [
                0.6000000238418579
            ],
            "min": [
                0.20000000298023224
            ],
            "type": "SCALAR"
        }
    ],
    "materials": [
        {
            "pbrMetallicRoughness": {
                "baseColorFactor": [
                    0,
                    1,
                    0,
                    1
                ],
                "metallicFactor": 0,
                "roughnessFactor": 0.9
            },
            "extensions": {
                "KHR_materials_unlit": {}
            }
        }
    ],
    "meshes": [
        {
            "primitives": [
                {
                    "mode": 4,
                    "attributes": {
                        "POSITION": 0,
                        "DIST": 1
                    },
                    "material": 0
                }
            ]
        }
    ],
    "extensionsUsed": [
        "KHR_materials_unlit"
    ]
}
