{
    "asset": {
        "version": "2.0",
        "generator": "THREE.GLTFExporter"
    },
    "scenes": [
        {
            "name": "AuxScene",
            "nodes": [
                0
            ]
        }
    ],
    "scene": 0,
    "nodes": [
        {
            "mesh": 0
        }
    ],
    "bufferViews": [
        {
            "buffer": 0,
            "byteOffset": 0,
            "byteLength": 4944,
            "target": 34962,
            "byteStride": 12
        },
        {
            "buffer": 0,
            "byteOffset": 4944,
            "byteLength": 14136,
            "target": 34963
        }
    ],
    "buffers": [
        {
            "byteLength": 19080,
            "uri": "data:application/octet-stream;base64,"
        }
    ],
    "accessors": [
        {
            "bufferView": 0,
            "componentType": 5126,
            "count": 412,
            "max": [
                2.9173946380615234,
                2.9173946380615234,
                2.9173946380615234
            ],
            "min": [
                -2.9173946380615234,
                -2.9173946380615234,
                -2.9173946380615234
            ],
            "type": "VEC3"
        },
        {
            "bufferView": 1,
            "componentType": 5123,
            "count": 7068,
            "max": [
                407
            ],
            "min": [
                0
            ],
            "type": "SCALAR"
        }
    ],
    "materials": [
        {
            "pbrMetallicRoughness": {
                "baseColorFactor": [
                    0,
                    1,
                    0,
                    1
                ],
                "metallicFactor": 0,
                "roughnessFactor": 0.9
            },
            "extensions": {
                "KHR_materials_unlit": {}
            }
        }
    ],
    "meshes": [
        {
            "primitives": [
                {
                    "mode": 1,
                    "attributes": {
                        "POSITION": 0
                    },
                    "indices": 1,
                    "material": 0
                }
            ]
        }
    ],
    "extensionsUsed": [
        "KHR_materials_unlit"
    ]
}
